<svg width="25" height="23" viewBox="0 0 25 23" fill="none" xmlns="http://www.w3.org/2000/svg">
<path d="M14.778 17.7261C13.5301 17.7261 12.5011 18.7324 12.5011 20.0011C12.5011 21.248 13.5082 22.2762 14.778 22.2762C16.0259 22.2762 17.0549 21.2699 17.0549 20.0011C17.033 18.7542 16.0259 17.7261 14.778 17.7261Z" fill="#FFAD4C"/>
<path d="M18.7845 6.87637C18.7407 6.87637 18.675 6.85449 18.6093 6.85449H4.81654L4.5976 5.38883C4.46624 4.4263 3.6343 3.70441 2.6491 3.70441H0.875734C0.39408 3.70441 0 4.09817 0 4.57943C0 5.06069 0.39408 5.45445 0.875734 5.45445H2.6491C2.75856 5.45445 2.84614 5.54196 2.86803 5.65133L4.22542 14.8828C4.40056 16.0422 5.40766 16.9173 6.5899 16.9173H15.6975C16.836 16.9173 17.8212 16.1079 18.062 14.9922L19.4851 7.88264C19.5727 7.42326 19.2661 6.96387 18.7845 6.87637Z" fill="#FFAD4C"/>
<path d="M9.19517 19.8918C9.15139 18.6886 8.14429 17.7261 6.94016 17.7261C5.67035 17.7917 4.70704 18.8417 4.75082 20.0886C4.79461 21.2918 5.77981 22.2543 6.98395 22.2543H7.02773C8.27565 22.1887 9.26085 21.1387 9.19517 19.8918Z" fill="#FFAD4C"/>
<path d="M24 6.99513C24 10.3062 21.3137 12.9903 18 12.9903C14.6863 12.9903 12 10.3062 12 6.99513C12 3.68411 14.6863 1 18 1C21.3137 1 24 3.68411 24 6.99513Z" fill="#FFAD4C"/>
<path fill-rule="evenodd" clip-rule="evenodd" d="M18 2C15.2378 2 13 4.23716 13 6.99513C13 9.75311 15.2378 11.9903 18 11.9903C20.7622 11.9903 23 9.75311 23 6.99513C23 4.23716 20.7622 2 18 2ZM11 6.99513C11 3.13106 14.1348 0 18 0C21.8652 0 25 3.13106 25 6.99513C25 10.8592 21.8652 13.9903 18 13.9903C14.1348 13.9903 11 10.8592 11 6.99513Z" fill="#FEF7EF"/>
<path d="M18.6738 7.03906H20.9004V8.33984H18.6738V10.877H17.291V8.33984H15.0527V7.03906H17.291V4.66602H18.6738V7.03906Z" fill="#FEF7EF"/>
</svg>
