<svg width="25" height="23" viewBox="0 0 25 23" fill="none" xmlns="http://www.w3.org/2000/svg">
<g clip-path="url(#clip0_1_132)">
<path d="M14.778 17.7261C13.5301 17.7261 12.5011 18.7324 12.5011 20.0011C12.5011 21.248 13.5082 22.2762 14.778 22.2762C16.0259 22.2762 17.0549 21.2699 17.0549 20.0011C17.033 18.7542 16.0259 17.7261 14.778 17.7261Z" fill="#FFAD4C"/>
<path d="M18.7845 6.87637C18.7407 6.87637 18.675 6.85449 18.6093 6.85449H4.81654L4.5976 5.38883C4.46624 4.4263 3.6343 3.70441 2.64909 3.70441H0.875734C0.39408 3.70441 0 4.09817 0 4.57943C0 5.06069 0.39408 5.45445 0.875734 5.45445H2.64909C2.75856 5.45445 2.84614 5.54196 2.86803 5.65133L4.22542 14.8828C4.40056 16.0422 5.40766 16.9173 6.5899 16.9173H15.6975C16.836 16.9173 17.8212 16.1079 18.062 14.9922L19.4851 7.88264C19.5727 7.42326 19.2661 6.96387 18.7845 6.87637Z" fill="#FFAD4C"/>
<path d="M9.19517 19.8918C9.15139 18.6886 8.14429 17.7261 6.94016 17.7261C5.67035 17.7917 4.70704 18.8417 4.75082 20.0886C4.79461 21.2918 5.77981 22.2543 6.98395 22.2543H7.02773C8.27565 22.1887 9.26085 21.1387 9.19517 19.8918Z" fill="#FFAD4C"/>
</g>
<ellipse cx="18" cy="6.99513" rx="6" ry="5.99513" fill="#FFAD4C" stroke="#FEF7EF" stroke-width="2"/>
<defs>
<clipPath id="clip0_1_132">
<rect width="19.5" height="19.4842" fill="white" transform="translate(0 3.2482)"/>
</clipPath>
</defs>
</svg>
